<svg width="461" height="141" viewBox="0 0 461 141" fill="none" xmlns="http://www.w3.org/2000/svg">
<path d="M402.559 82.3218V97.1045C402.953 97.4987 403.6 97.6958 404.501 97.6958C405.403 97.6958 406.05 97.3861 406.444 96.7666C406.839 96.1471 407.036 95.0771 407.036 93.5566V81.4771C407.036 76.0708 406.81 72.4948 406.36 70.749C405.909 68.9469 405.065 68.0459 403.826 68.0459C403.037 68.0459 402.361 68.3275 401.798 68.8906C402.305 74.4658 402.559 78.9429 402.559 82.3218ZM370.966 119.743C361.73 110.845 357.112 98.7939 357.112 83.5889C357.112 68.3275 361.449 56.3042 370.121 47.519C378.85 38.6776 390.282 34.2568 404.417 34.2568C418.552 34.2568 429.984 38.8465 438.713 48.0259C447.385 57.2052 451.722 69.1722 451.722 83.9268C451.722 98.625 447.526 110.31 439.135 118.983C430.801 127.655 419.453 131.992 405.093 131.992C390.732 131.992 379.357 127.909 370.966 119.743Z" fill="#6CC070"/>
<path d="M302.29 72.6919C302.515 72.8608 303.162 72.9453 304.232 72.9453C305.302 72.9453 306.119 72.5229 306.682 71.6782C307.245 70.8335 307.527 69.4538 307.527 67.5391V61.1191C307.527 59.0918 307.273 57.6558 306.767 56.811C306.316 55.91 305.528 55.4595 304.401 55.4595C303.331 55.4595 302.599 55.5721 302.205 55.7974C302.261 56.0789 302.29 56.5576 302.29 57.2334V72.6919ZM304.401 110.874V123.798C301.924 125.882 298.432 127.599 293.927 128.951C289.422 130.246 284.719 130.894 279.82 130.894C272.837 130.894 267.121 129.542 262.672 126.839C257.604 123.742 255.069 119.264 255.069 113.408V33.1587C255.069 31.3566 256.28 29.5545 258.702 27.7524C261.18 25.9504 264.587 24.3172 268.923 22.853C278.215 19.6994 288.83 18.1226 300.769 18.1226C317.269 18.1226 330.419 22.2336 340.218 30.4556C350.017 38.6776 354.916 49.7435 354.916 63.6533C354.916 77.5068 350.495 88.2912 341.654 96.0063C333.15 103.327 321.352 106.988 306.26 106.988C302.825 106.988 299.136 106.594 295.194 105.805C291.308 104.96 288.689 104.228 287.338 103.609C286.887 104.059 286.662 104.679 286.662 105.467C286.662 108.339 292.575 110.141 304.401 110.874Z" fill="#FF2E95"/>
<path d="M201.007 82.3218V97.1045C201.401 97.4987 202.049 97.6958 202.95 97.6958C203.851 97.6958 204.498 97.3861 204.893 96.7666C205.287 96.1471 205.484 95.0771 205.484 93.5566V81.4771C205.484 76.0708 205.259 72.4948 204.808 70.749C204.358 68.9469 203.513 68.0459 202.274 68.0459C201.486 68.0459 200.81 68.3275 200.247 68.8906C200.753 74.4658 201.007 78.9429 201.007 82.3218ZM169.414 119.743C160.178 110.845 155.561 98.7939 155.561 83.5889C155.561 68.3275 159.897 56.3042 168.569 47.519C177.298 38.6776 188.73 34.2568 202.865 34.2568C217 34.2568 228.432 38.8465 237.161 48.0259C245.834 57.2052 250.17 69.1722 250.17 83.9268C250.17 98.625 245.974 110.31 237.583 118.983C229.249 127.655 217.901 131.992 203.541 131.992C189.181 131.992 177.805 127.909 169.414 119.743Z" fill="#FFD66B"/>
<path d="M148.296 27.4146V86.7988C148.296 95.1898 150.323 100.652 154.378 103.187C154.434 103.468 154.462 104.003 154.462 104.792V106.312C154.462 114.365 152.407 120.475 148.296 124.643C144.241 128.81 138.469 130.894 130.979 130.894C123.489 130.894 117.548 128.81 113.155 124.643C107.918 119.687 105.299 112.197 105.299 102.173V14.4058C111.212 10.8016 117.97 8.99951 125.573 8.99951C133.232 8.99951 138.919 10.6326 142.636 13.8989C146.409 17.1089 148.296 21.6141 148.296 27.4146Z" fill="#FF8A5B"/>
<path d="M58.3325 101.582V122.953C55.742 125.206 52.2786 127.092 47.9424 128.613C43.6624 130.133 38.4251 130.894 32.2305 130.894C26.0921 130.894 20.7985 129.514 16.3496 126.754C11.4502 123.77 9.00049 119.518 9.00049 113.999V28.1748C9.00049 22.9938 21.6995 20.4033 47.0977 20.4033H96.6831C98.3162 23.388 99.527 26.7388 100.315 30.4556C101.104 34.116 101.498 37.4105 101.498 40.3389C101.498 53.235 95.8384 59.6831 84.519 59.6831H55.2915C53.1515 59.6831 52.0815 60.5841 52.0815 62.3862V62.9775C52.0815 63.3154 52.1379 63.5407 52.2505 63.6533H89.5874C92.4595 68.5527 93.8955 74.0716 93.8955 80.21C93.8955 87.8688 92.1779 93.8382 88.7427 98.1182H47.3511C46.9006 98.5687 46.6753 99.0755 46.6753 99.6387C46.6753 100.54 47.3511 101.075 48.7026 101.244C50.1105 101.413 51.6873 101.497 53.4331 101.497C55.1789 101.497 56.812 101.525 58.3325 101.582Z" fill="#2A8DFF"/>
<path d="M348.26 88.4727C352.696 81.7394 354.916 73.4668 354.916 63.6533C354.916 60.5204 354.666 57.5319 354.169 54.6875C356.586 49.7276 359.752 45.2111 363.716 41.1963H363.717L364.219 40.6943C374.808 30.2414 388.489 25.2568 404.417 25.2568C420.448 25.2568 434.167 30.4744 444.734 41.3037L445.235 41.8242L445.245 41.835L445.255 41.8447C455.769 52.9734 460.722 67.2877 460.722 83.9268C460.722 100.421 455.958 114.538 445.603 125.24C435.248 136.001 421.379 140.992 405.093 140.992C388.95 140.992 375.124 136.348 364.689 126.193V126.192C354.48 116.34 349.185 103.504 348.26 88.4727ZM403.826 68.0459C405.065 68.0461 405.91 68.9472 406.36 70.749C406.811 72.4948 407.036 76.0714 407.036 81.4775V93.5566C407.036 95.0771 406.839 96.1471 406.444 96.7666C406.05 97.386 405.403 97.6962 404.502 97.6963L404.176 97.6865C403.443 97.6434 402.904 97.4495 402.559 97.1045V82.3223C402.559 79.3657 402.365 75.5678 401.977 70.9297L401.799 68.8906C402.362 68.3276 403.038 68.0459 403.826 68.0459ZM357.112 83.5889C357.112 98.7939 361.73 110.845 370.966 119.743C379.094 127.654 390.024 131.732 403.755 131.979L405.093 131.992C419.453 131.992 430.801 127.656 439.136 118.983C447.527 110.311 451.722 98.625 451.722 83.9268C451.722 69.1723 447.385 57.2057 438.713 48.0264C429.984 38.847 418.552 34.2568 404.417 34.2568C390.282 34.2568 378.85 38.6781 370.121 47.5195C361.449 56.3047 357.112 68.3276 357.112 83.5889Z" fill="white"/>
<path d="M246.081 32.5908C246.323 26.7789 250.249 22.8239 253.328 20.5322L253.408 20.4736C256.887 17.9435 261.218 15.9559 266.03 14.3301C276.431 10.8003 288.053 9.12305 300.77 9.12305C318.479 9.12313 333.68 13.4857 345.445 23.0996L346.003 23.5615C356.175 32.097 361.951 43.2036 363.493 56.2881C359.239 63.8 357.112 72.9003 357.112 83.5889C357.112 86.0222 357.231 88.3747 357.468 90.6465C354.944 95.152 351.659 99.2198 347.571 102.787L347.549 102.808L347.525 102.827C338.466 110.627 326.852 114.69 313.401 115.72V127.989L310.193 130.687C306.451 133.833 301.704 136.014 296.513 137.571L296.413 137.601C291.064 139.138 285.522 139.894 279.82 139.894C271.734 139.894 264.258 138.334 257.998 134.53L257.979 134.519C250.282 129.815 246.069 122.454 246.069 113.408V106.143C248.801 99.7178 250.17 92.3133 250.17 83.9268C250.17 75.6435 248.803 68.239 246.069 61.7129V33.1592L246.081 32.5908ZM304.401 55.46C305.528 55.46 306.316 55.9105 306.767 56.8115C307.273 57.6563 307.527 59.0921 307.527 61.1191V67.5391C307.527 69.4538 307.246 70.834 306.683 71.6787C306.119 72.5234 305.302 72.9453 304.232 72.9453C303.163 72.9453 302.516 72.8611 302.29 72.6924V57.2334C302.29 56.558 302.261 56.0795 302.205 55.7979C302.599 55.5726 303.331 55.46 304.401 55.46ZM304.232 64.4541C304.248 64.4546 304.263 64.4557 304.278 64.4561C304.308 64.4528 304.35 64.4491 304.401 64.4414V64.0059C304.336 63.9936 304.28 63.9849 304.232 63.9775V64.4541ZM304.039 63.9502C303.652 63.9652 303.179 64.0255 302.659 64.1758C303.287 64.3745 303.834 64.4401 304.232 64.4541V63.9775C304.178 63.969 304.136 63.9617 304.108 63.958C304.082 63.9546 304.059 63.9524 304.039 63.9502ZM304.401 64.4414C304.407 64.4406 304.412 64.4403 304.418 64.4395C304.546 64.4197 304.805 64.373 305.15 64.2695C305.187 64.2584 305.226 64.244 305.269 64.2305C305.187 64.2041 305.114 64.1785 305.047 64.1592C304.789 64.0842 304.567 64.0371 304.401 64.0059V64.4414ZM255.069 113.408L255.077 113.953C255.231 119.543 257.762 123.838 262.672 126.839C266.982 129.458 272.481 130.808 279.169 130.89L279.82 130.894C284.413 130.894 288.833 130.324 293.08 129.186L293.927 128.951C298.432 127.6 301.924 125.882 304.401 123.798V110.874C292.576 110.142 286.663 108.34 286.662 105.468C286.662 104.68 286.888 104.06 287.338 103.609C288.69 104.229 291.309 104.961 295.194 105.806L295.93 105.948C299.596 106.641 303.039 106.988 306.26 106.988C321.352 106.988 333.151 103.328 341.654 96.0068C350.496 88.2917 354.916 77.5068 354.916 63.6533C354.916 49.9609 350.169 39.0238 340.674 30.8428L340.218 30.4561C330.725 22.4909 318.088 18.3836 302.306 18.1348L300.77 18.123C288.831 18.123 278.215 19.6999 268.923 22.8535L268.121 23.1299C264.165 24.5224 261.025 26.0635 258.702 27.7529C256.281 29.555 255.069 31.3571 255.069 33.1592V113.408Z" fill="white"/>
<path d="M148.296 67.1279C150.563 57.1073 155.097 48.3549 162.164 41.1963H162.165L162.667 40.6943C173.257 30.2414 186.937 25.2568 202.865 25.2568C218.896 25.2568 232.615 30.4744 243.183 41.3037L243.684 41.8242L243.693 41.835L243.703 41.8447C248.752 47.1889 252.518 53.2683 255.069 59.9863V107.897C252.586 114.368 248.942 120.185 244.051 125.24C233.697 136.001 219.827 140.992 203.541 140.992C187.398 140.992 173.573 136.348 163.138 126.193V126.192C159.325 122.513 156.199 118.418 153.729 113.947C154.217 111.633 154.463 109.088 154.463 106.312V104.792C154.463 104.004 154.434 103.468 154.378 103.187C150.323 100.652 148.296 95.1898 148.296 86.7988V67.1279ZM202.274 68.0459C203.513 68.0461 204.358 68.9472 204.809 70.749C205.259 72.4948 205.484 76.0714 205.484 81.4775V93.5566C205.484 95.0771 205.287 96.1471 204.893 96.7666C204.498 97.386 203.851 97.6962 202.95 97.6963L202.624 97.6865C201.891 97.6434 201.352 97.4495 201.007 97.1045V82.3223C201.007 79.3657 200.813 75.5678 200.425 70.9297L200.247 68.8906C200.81 68.3276 201.486 68.0459 202.274 68.0459ZM155.561 83.5889C155.561 98.7939 160.178 110.845 169.414 119.743C177.543 127.654 188.472 131.732 202.203 131.979L203.541 131.992C217.901 131.992 229.249 127.656 237.584 118.983C245.975 110.311 250.17 98.625 250.17 83.9268C250.17 69.1723 245.833 57.2057 237.161 48.0264C228.432 38.847 217 34.2568 202.865 34.2568C188.73 34.2568 177.298 38.6781 168.569 47.5195C159.897 56.3047 155.561 68.3276 155.561 83.5889Z" fill="white"/>
<path d="M96.2998 55.8203C99.7643 52.6328 101.498 47.4734 101.498 40.3389C101.498 37.4106 101.104 34.1163 100.315 30.4561C99.527 26.7393 98.3167 23.388 96.6836 20.4033H96.2998V9.35156L100.615 6.7207C108.075 2.17355 116.485 0 125.573 0C134.219 6.76556e-05 142.423 1.79762 148.467 7.04395H148.468C148.49 7.06244 148.511 7.08204 148.532 7.10059C148.547 7.11349 148.562 7.12573 148.577 7.13867H148.576C154.634 12.3503 157.296 19.5225 157.296 27.415V68.1748C156.141 72.8818 155.561 78.0194 155.561 83.5889C155.561 94.8273 158.084 104.342 163.13 112.135C162.278 119.338 159.718 125.854 154.745 130.918L154.746 130.919C154.74 130.926 154.732 130.932 154.726 130.938C154.718 130.946 154.711 130.955 154.703 130.963L154.702 130.962C148.505 137.303 140.142 139.893 130.979 139.894C121.759 139.894 113.4 137.281 106.961 131.172V131.171C99.3227 123.938 96.2998 113.675 96.2998 102.173V55.8203ZM105.3 102.173L105.307 103.105C105.465 112.663 108.082 119.842 113.155 124.643C117.411 128.68 123.119 130.762 130.281 130.888L130.979 130.894C138.469 130.893 144.241 128.81 148.296 124.643C152.278 120.606 154.332 114.745 154.456 107.062L154.463 106.312V104.792C154.463 104.004 154.434 103.468 154.378 103.187C150.323 100.652 148.296 95.1898 148.296 86.7988V27.415C148.296 21.6149 146.409 17.1093 142.637 13.8994C139.036 10.7352 133.585 9.10281 126.285 9.00391L125.573 9C117.971 9 111.213 10.8021 105.3 14.4062V102.173Z" fill="white"/>
<path d="M93.8955 80.21C93.8955 74.0717 92.4599 68.5527 89.5879 63.6533H52.251L52.2109 63.6055C52.1494 63.5175 52.1094 63.3858 52.0918 63.21L52.082 62.9775V62.3867C52.082 60.5846 53.152 59.6836 55.292 59.6836H84.5195C95.8385 59.6834 101.498 53.2348 101.498 40.3389C101.498 37.4106 101.104 34.1163 100.315 30.4561C99.527 26.7393 98.3167 23.388 96.6836 20.4033H47.0977V11.4033H102.018L104.578 16.083C104.827 16.5382 105.068 16.9988 105.3 17.4639V59.1797C104.9 59.7297 104.473 60.2652 104.018 60.7842C102.776 62.1988 101.409 63.3939 99.9463 64.3945C101.931 69.3429 102.896 74.6444 102.896 80.21C102.896 89.1192 100.903 97.3467 95.7617 103.752L93.0596 107.118H67.333V127.054L64.2383 129.744C60.5596 132.943 56.0088 135.317 50.9541 137.093L50.9551 137.094C45.427 139.058 39.1038 139.894 32.2305 139.894C24.7342 139.894 17.7565 138.199 11.667 134.439V134.44C11.6502 134.43 11.6339 134.419 11.6172 134.409C11.6135 134.407 11.6092 134.405 11.6055 134.402V134.401C4.19271 129.86 0 122.781 0 113.999V28.1748C0 22.4944 3.70139 18.9237 6.68359 17.0986C9.59011 15.3199 13.1687 14.2529 16.7256 13.5273C23.9911 12.0452 34.253 11.4033 47.0977 11.4033V20.4033C21.6995 20.4033 9.00098 22.9938 9.00098 28.1748V113.999L9.00781 114.513C9.15613 119.782 11.6033 123.863 16.3496 126.755C20.7985 129.514 26.0922 130.894 32.2305 130.894C38.4251 130.894 43.6625 130.134 47.9424 128.613C52.2786 127.093 55.7425 125.206 58.333 122.953V101.582C57.1927 101.54 55.9886 101.513 54.7217 101.502L53.4336 101.497C51.688 101.497 50.1109 101.413 48.7031 101.244C47.3516 101.075 46.6758 100.54 46.6758 99.6387C46.6758 99.0755 46.901 98.5687 47.3516 98.1182H88.7432L89.0596 97.7119C92.2835 93.4634 93.8955 87.6295 93.8955 80.21Z" fill="white"/>
</svg>
