<svg width="461" height="212" viewBox="0 0 461 212" fill="none" xmlns="http://www.w3.org/2000/svg">
<path d="M402.559 82.3218V97.1045C402.953 97.4987 403.6 97.6958 404.501 97.6958C405.403 97.6958 406.05 97.3861 406.444 96.7666C406.839 96.1471 407.036 95.0771 407.036 93.5566V81.4771C407.036 76.0708 406.81 72.4948 406.36 70.749C405.909 68.9469 405.065 68.0459 403.826 68.0459C403.037 68.0459 402.361 68.3275 401.798 68.8906C402.305 74.4658 402.559 78.9429 402.559 82.3218ZM370.966 119.743C361.73 110.845 357.112 98.7939 357.112 83.5889C357.112 68.3275 361.449 56.3042 370.121 47.519C378.85 38.6776 390.282 34.2568 404.417 34.2568C418.552 34.2568 429.984 38.8465 438.713 48.0259C447.385 57.2052 451.722 69.1722 451.722 83.9268C451.722 98.625 447.526 110.31 439.135 118.983C430.801 127.655 419.453 131.992 405.093 131.992C390.732 131.992 379.357 127.909 370.966 119.743Z" fill="#6CC070"/>
<path d="M302.29 72.6919C302.515 72.8608 303.162 72.9453 304.232 72.9453C305.302 72.9453 306.119 72.5229 306.682 71.6782C307.245 70.8335 307.527 69.4538 307.527 67.5391V61.1191C307.527 59.0918 307.273 57.6558 306.767 56.811C306.316 55.91 305.528 55.4595 304.401 55.4595C303.331 55.4595 302.599 55.5721 302.205 55.7974C302.261 56.0789 302.29 56.5576 302.29 57.2334V72.6919ZM304.401 110.874V123.798C301.924 125.882 298.432 127.599 293.927 128.951C289.422 130.246 284.719 130.894 279.82 130.894C272.837 130.894 267.121 129.542 262.672 126.839C257.604 123.742 255.069 119.264 255.069 113.408V33.1587C255.069 31.3566 256.28 29.5545 258.702 27.7524C261.18 25.9504 264.587 24.3172 268.923 22.853C278.215 19.6994 288.83 18.1226 300.769 18.1226C317.269 18.1226 330.419 22.2336 340.218 30.4556C350.017 38.6776 354.916 49.7435 354.916 63.6533C354.916 77.5068 350.495 88.2912 341.654 96.0063C333.15 103.327 321.352 106.988 306.26 106.988C302.825 106.988 299.136 106.594 295.194 105.805C291.308 104.96 288.689 104.228 287.338 103.609C286.887 104.059 286.662 104.679 286.662 105.467C286.662 108.339 292.575 110.141 304.401 110.874Z" fill="#FF2E95"/>
<path d="M201.007 82.3218V97.1045C201.401 97.4987 202.049 97.6958 202.95 97.6958C203.851 97.6958 204.498 97.3861 204.893 96.7666C205.287 96.1471 205.484 95.0771 205.484 93.5566V81.4771C205.484 76.0708 205.259 72.4948 204.808 70.749C204.358 68.9469 203.513 68.0459 202.274 68.0459C201.486 68.0459 200.81 68.3275 200.247 68.8906C200.753 74.4658 201.007 78.9429 201.007 82.3218ZM169.414 119.743C160.178 110.845 155.561 98.7939 155.561 83.5889C155.561 68.3275 159.897 56.3042 168.569 47.519C177.298 38.6776 188.73 34.2568 202.865 34.2568C217 34.2568 228.432 38.8465 237.161 48.0259C245.834 57.2052 250.17 69.1722 250.17 83.9268C250.17 98.625 245.974 110.31 237.583 118.983C229.249 127.655 217.901 131.992 203.541 131.992C189.181 131.992 177.805 127.909 169.414 119.743Z" fill="#FFD66B"/>
<path d="M148.296 27.4146V86.7988C148.296 95.1898 150.323 100.652 154.378 103.187C154.434 103.468 154.462 104.003 154.462 104.792V106.312C154.462 114.365 152.407 120.475 148.296 124.643C144.241 128.81 138.469 130.894 130.979 130.894C123.489 130.894 117.548 128.81 113.155 124.643C107.918 119.687 105.299 112.197 105.299 102.173V14.4058C111.212 10.8016 117.97 8.99951 125.573 8.99951C133.232 8.99951 138.919 10.6326 142.636 13.8989C146.409 17.1089 148.296 21.6141 148.296 27.4146Z" fill="#FF8A5B"/>
<path d="M58.3325 101.582V122.953C55.742 125.206 52.2786 127.092 47.9424 128.613C43.6624 130.133 38.4251 130.894 32.2305 130.894C26.0921 130.894 20.7985 129.514 16.3496 126.754C11.4502 123.77 9.00049 119.518 9.00049 113.999V28.1748C9.00049 22.9938 21.6995 20.4033 47.0977 20.4033H96.6831C98.3162 23.388 99.527 26.7388 100.315 30.4556C101.104 34.116 101.498 37.4105 101.498 40.3389C101.498 53.235 95.8384 59.6831 84.519 59.6831H55.2915C53.1515 59.6831 52.0815 60.5841 52.0815 62.3862V62.9775C52.0815 63.3154 52.1379 63.5407 52.2505 63.6533H89.5874C92.4595 68.5527 93.8955 74.0716 93.8955 80.21C93.8955 87.8688 92.1779 93.8382 88.7427 98.1182H47.3511C46.9006 98.5687 46.6753 99.0755 46.6753 99.6387C46.6753 100.54 47.3511 101.075 48.7026 101.244C50.1105 101.413 51.6873 101.497 53.4331 101.497C55.1789 101.497 56.812 101.525 58.3325 101.582Z" fill="#2A8DFF"/>
<path d="M348.26 88.4727C352.696 81.7394 354.916 73.4668 354.916 63.6533C354.916 60.5204 354.666 57.5319 354.169 54.6875C356.586 49.7276 359.752 45.2111 363.716 41.1963H363.717L364.219 40.6943C374.808 30.2414 388.489 25.2568 404.417 25.2568C420.448 25.2568 434.167 30.4744 444.734 41.3037L445.235 41.8242L445.245 41.835L445.255 41.8447C455.769 52.9734 460.722 67.2877 460.722 83.9268C460.722 100.421 455.958 114.538 445.603 125.24C435.248 136.001 421.379 140.992 405.093 140.992C388.95 140.992 375.124 136.348 364.689 126.193V126.192C354.48 116.34 349.185 103.504 348.26 88.4727ZM403.826 68.0459C405.065 68.0461 405.91 68.9472 406.36 70.749C406.811 72.4948 407.036 76.0714 407.036 81.4775V93.5566C407.036 95.0771 406.839 96.1471 406.444 96.7666C406.05 97.386 405.403 97.6962 404.502 97.6963L404.176 97.6865C403.443 97.6434 402.904 97.4495 402.559 97.1045V82.3223C402.559 79.3657 402.365 75.5678 401.977 70.9297L401.799 68.8906C402.362 68.3276 403.038 68.0459 403.826 68.0459ZM357.112 83.5889C357.112 98.7939 361.73 110.845 370.966 119.743C379.094 127.654 390.024 131.732 403.755 131.979L405.093 131.992C419.453 131.992 430.801 127.656 439.136 118.983C447.527 110.311 451.722 98.625 451.722 83.9268C451.722 69.1723 447.385 57.2057 438.713 48.0264C429.984 38.847 418.552 34.2568 404.417 34.2568C390.282 34.2568 378.85 38.6781 370.121 47.5195C361.449 56.3047 357.112 68.3276 357.112 83.5889Z" fill="white"/>
<path d="M246.081 32.5908C246.323 26.7789 250.249 22.8239 253.328 20.5322L253.408 20.4736C256.887 17.9435 261.218 15.9559 266.03 14.3301C276.431 10.8003 288.053 9.12305 300.77 9.12305C318.479 9.12313 333.68 13.4857 345.445 23.0996L346.003 23.5615C356.175 32.097 361.951 43.2036 363.493 56.2881C359.239 63.8 357.112 72.9003 357.112 83.5889C357.112 86.0222 357.231 88.3747 357.468 90.6465C354.944 95.152 351.659 99.2198 347.571 102.787L347.549 102.808L347.525 102.827C338.466 110.627 326.852 114.69 313.401 115.72V127.989L310.193 130.687C306.451 133.833 301.704 136.014 296.513 137.571L296.413 137.601C291.064 139.138 285.522 139.894 279.82 139.894C271.734 139.894 264.258 138.334 257.998 134.53L257.979 134.519C250.282 129.815 246.069 122.454 246.069 113.408V106.143C248.801 99.7178 250.17 92.3133 250.17 83.9268C250.17 75.6435 248.803 68.239 246.069 61.7129V33.1592L246.081 32.5908ZM304.401 55.46C305.528 55.46 306.316 55.9105 306.767 56.8115C307.273 57.6563 307.527 59.0921 307.527 61.1191V67.5391C307.527 69.4538 307.246 70.834 306.683 71.6787C306.119 72.5234 305.302 72.9453 304.232 72.9453C303.163 72.9453 302.516 72.8611 302.29 72.6924V57.2334C302.29 56.558 302.261 56.0795 302.205 55.7979C302.599 55.5726 303.331 55.46 304.401 55.46ZM304.232 64.4541C304.248 64.4546 304.263 64.4557 304.278 64.4561C304.308 64.4528 304.35 64.4491 304.401 64.4414V64.0059C304.336 63.9936 304.28 63.9849 304.232 63.9775V64.4541ZM304.039 63.9502C303.652 63.9652 303.179 64.0255 302.659 64.1758C303.287 64.3745 303.834 64.4401 304.232 64.4541V63.9775C304.178 63.969 304.136 63.9617 304.108 63.958C304.082 63.9546 304.059 63.9524 304.039 63.9502ZM304.401 64.4414C304.407 64.4406 304.412 64.4403 304.418 64.4395C304.546 64.4197 304.805 64.373 305.15 64.2695C305.187 64.2584 305.226 64.244 305.269 64.2305C305.187 64.2041 305.114 64.1785 305.047 64.1592C304.789 64.0842 304.567 64.0371 304.401 64.0059V64.4414ZM255.069 113.408L255.077 113.953C255.231 119.543 257.762 123.838 262.672 126.839C266.982 129.458 272.481 130.808 279.169 130.89L279.82 130.894C284.413 130.894 288.833 130.324 293.08 129.186L293.927 128.951C298.432 127.6 301.924 125.882 304.401 123.798V110.874C292.576 110.142 286.663 108.34 286.662 105.468C286.662 104.68 286.888 104.06 287.338 103.609C288.69 104.229 291.309 104.961 295.194 105.806L295.93 105.948C299.596 106.641 303.039 106.988 306.26 106.988C321.352 106.988 333.151 103.328 341.654 96.0068C350.496 88.2917 354.916 77.5068 354.916 63.6533C354.916 49.9609 350.169 39.0238 340.674 30.8428L340.218 30.4561C330.725 22.4909 318.088 18.3836 302.306 18.1348L300.77 18.123C288.831 18.123 278.215 19.6999 268.923 22.8535L268.121 23.1299C264.165 24.5224 261.025 26.0635 258.702 27.7529C256.281 29.555 255.069 31.3571 255.069 33.1592V113.408Z" fill="white"/>
<path d="M148.296 67.1279C150.563 57.1073 155.097 48.3549 162.164 41.1963H162.165L162.667 40.6943C173.257 30.2414 186.937 25.2568 202.865 25.2568C218.896 25.2568 232.615 30.4744 243.183 41.3037L243.684 41.8242L243.693 41.835L243.703 41.8447C248.752 47.1889 252.518 53.2683 255.069 59.9863V107.897C252.586 114.368 248.942 120.185 244.051 125.24C233.697 136.001 219.827 140.992 203.541 140.992C187.398 140.992 173.573 136.348 163.138 126.193V126.192C159.325 122.513 156.199 118.418 153.729 113.947C154.217 111.633 154.463 109.088 154.463 106.312V104.792C154.463 104.004 154.434 103.468 154.378 103.187C150.323 100.652 148.296 95.1898 148.296 86.7988V67.1279ZM202.274 68.0459C203.513 68.0461 204.358 68.9472 204.809 70.749C205.259 72.4948 205.484 76.0714 205.484 81.4775V93.5566C205.484 95.0771 205.287 96.1471 204.893 96.7666C204.498 97.386 203.851 97.6962 202.95 97.6963L202.624 97.6865C201.891 97.6434 201.352 97.4495 201.007 97.1045V82.3223C201.007 79.3657 200.813 75.5678 200.425 70.9297L200.247 68.8906C200.81 68.3276 201.486 68.0459 202.274 68.0459ZM155.561 83.5889C155.561 98.7939 160.178 110.845 169.414 119.743C177.543 127.654 188.472 131.732 202.203 131.979L203.541 131.992C217.901 131.992 229.249 127.656 237.584 118.983C245.975 110.311 250.17 98.625 250.17 83.9268C250.17 69.1723 245.833 57.2057 237.161 48.0264C228.432 38.847 217 34.2568 202.865 34.2568C188.73 34.2568 177.298 38.6781 168.569 47.5195C159.897 56.3047 155.561 68.3276 155.561 83.5889Z" fill="white"/>
<path d="M96.2998 55.8203C99.7643 52.6328 101.498 47.4734 101.498 40.3389C101.498 37.4106 101.104 34.1163 100.315 30.4561C99.527 26.7393 98.3167 23.388 96.6836 20.4033H96.2998V9.35156L100.615 6.7207C108.075 2.17355 116.485 0 125.573 0C134.219 6.76556e-05 142.423 1.79762 148.467 7.04395H148.468C148.49 7.06244 148.511 7.08204 148.532 7.10059C148.547 7.11349 148.562 7.12573 148.577 7.13867H148.576C154.634 12.3503 157.296 19.5225 157.296 27.415V68.1748C156.141 72.8818 155.561 78.0194 155.561 83.5889C155.561 94.8273 158.084 104.342 163.13 112.135C162.278 119.338 159.718 125.854 154.745 130.918L154.746 130.919C154.74 130.926 154.732 130.932 154.726 130.938C154.718 130.946 154.711 130.955 154.703 130.963L154.702 130.962C148.505 137.303 140.142 139.893 130.979 139.894C121.759 139.894 113.4 137.281 106.961 131.172V131.171C99.3227 123.938 96.2998 113.675 96.2998 102.173V55.8203ZM105.3 102.173L105.307 103.105C105.465 112.663 108.082 119.842 113.155 124.643C117.411 128.68 123.119 130.762 130.281 130.888L130.979 130.894C138.469 130.893 144.241 128.81 148.296 124.643C152.278 120.606 154.332 114.745 154.456 107.062L154.463 106.312V104.792C154.463 104.004 154.434 103.468 154.378 103.187C150.323 100.652 148.296 95.1898 148.296 86.7988V27.415C148.296 21.6149 146.409 17.1093 142.637 13.8994C139.036 10.7352 133.585 9.10281 126.285 9.00391L125.573 9C117.971 9 111.213 10.8021 105.3 14.4062V102.173Z" fill="white"/>
<path d="M93.8955 80.21C93.8955 74.0717 92.4599 68.5527 89.5879 63.6533H52.251L52.2109 63.6055C52.1494 63.5175 52.1094 63.3858 52.0918 63.21L52.082 62.9775V62.3867C52.082 60.5846 53.152 59.6836 55.292 59.6836H84.5195C95.8385 59.6834 101.498 53.2348 101.498 40.3389C101.498 37.4106 101.104 34.1163 100.315 30.4561C99.527 26.7393 98.3167 23.388 96.6836 20.4033H47.0977V11.4033H102.018L104.578 16.083C104.827 16.5382 105.068 16.9988 105.3 17.4639V59.1797C104.9 59.7297 104.473 60.2652 104.018 60.7842C102.776 62.1988 101.409 63.3939 99.9463 64.3945C101.931 69.3429 102.896 74.6444 102.896 80.21C102.896 89.1192 100.903 97.3467 95.7617 103.752L93.0596 107.118H67.333V127.054L64.2383 129.744C60.5596 132.943 56.0088 135.317 50.9541 137.093L50.9551 137.094C45.427 139.058 39.1038 139.894 32.2305 139.894C24.7342 139.894 17.7565 138.199 11.667 134.439V134.44C11.6502 134.43 11.6339 134.419 11.6172 134.409C11.6135 134.407 11.6092 134.405 11.6055 134.402V134.401C4.19271 129.86 0 122.781 0 113.999V28.1748C0 22.4944 3.70139 18.9237 6.68359 17.0986C9.59011 15.3199 13.1687 14.2529 16.7256 13.5273C23.9911 12.0452 34.253 11.4033 47.0977 11.4033V20.4033C21.6995 20.4033 9.00098 22.9938 9.00098 28.1748V113.999L9.00781 114.513C9.15613 119.782 11.6033 123.863 16.3496 126.755C20.7985 129.514 26.0922 130.894 32.2305 130.894C38.4251 130.894 43.6625 130.134 47.9424 128.613C52.2786 127.093 55.7425 125.206 58.333 122.953V101.582C57.1927 101.54 55.9886 101.513 54.7217 101.502L53.4336 101.497C51.688 101.497 50.1109 101.413 48.7031 101.244C47.3516 101.075 46.6758 100.54 46.6758 99.6387C46.6758 99.0755 46.901 98.5687 47.3516 98.1182H88.7432L89.0596 97.7119C92.2835 93.4634 93.8955 87.6295 93.8955 80.21Z" fill="white"/>
<path d="M10.6738 199.893C9.9805 199.893 9.4605 199.789 9.11384 199.581C8.80184 199.408 8.59384 199.148 8.48984 198.801C8.38584 198.42 8.33384 197.986 8.33384 197.501V165.937C8.33384 165.036 8.50717 164.429 8.85384 164.117C9.23517 163.77 9.89384 163.597 10.8298 163.597H31.7338C32.2192 163.597 32.6352 163.649 32.9818 163.753C33.3285 163.857 33.5885 164.082 33.7618 164.429C33.9352 164.776 34.0218 165.296 34.0218 165.989C34.0218 166.682 33.9178 167.202 33.7098 167.549C33.5365 167.861 33.2765 168.069 32.9298 168.173C32.5832 168.277 32.1672 168.329 31.6818 168.329H13.0138V179.093H26.0138C26.4992 179.093 26.8978 179.145 27.2098 179.249C27.5565 179.353 27.8165 179.561 27.9898 179.873C28.1632 180.185 28.2498 180.67 28.2498 181.329C28.2498 181.953 28.1632 182.421 27.9898 182.733C27.8165 183.045 27.5565 183.253 27.2098 183.357C26.8632 183.426 26.4298 183.461 25.9098 183.461H13.0138V195.213H31.7338C32.2192 195.213 32.6352 195.265 32.9818 195.369C33.3285 195.473 33.5885 195.698 33.7618 196.045C33.9352 196.357 34.0218 196.86 34.0218 197.553C34.0218 198.246 33.9178 198.766 33.7098 199.113C33.5365 199.425 33.2765 199.633 32.9298 199.737C32.5832 199.841 32.1672 199.893 31.6818 199.893H10.6738ZM61.4803 199.841C60.7176 199.841 60.1629 199.685 59.8163 199.373C59.5043 199.061 59.3136 198.576 59.2443 197.917L59.4523 195.317C59.1056 195.872 58.5683 196.513 57.8403 197.241C57.1123 197.934 56.1589 198.558 54.9803 199.113C53.8016 199.633 52.3629 199.893 50.6643 199.893C49.0003 199.893 47.4403 199.564 45.9843 198.905C44.5629 198.246 43.2976 197.328 42.1883 196.149C41.1136 194.97 40.2643 193.618 39.6403 192.093C39.0509 190.568 38.7563 188.938 38.7563 187.205C38.7563 185.506 39.0509 183.912 39.6403 182.421C40.2643 180.896 41.1309 179.561 42.2403 178.417C43.3496 177.273 44.6149 176.372 46.0363 175.713C47.4923 175.054 49.0349 174.725 50.6643 174.725C52.1896 174.725 53.4896 174.933 54.5643 175.349C55.6389 175.73 56.5576 176.25 57.3203 176.909C58.1176 177.533 58.8109 178.244 59.4003 179.041L59.2963 176.857C59.2616 176.094 59.4176 175.557 59.7643 175.245C60.1456 174.898 60.7349 174.725 61.5323 174.725C62.1909 174.725 62.6589 174.829 62.9363 175.037C63.2483 175.245 63.4563 175.54 63.5603 175.921C63.6643 176.302 63.7163 176.77 63.7163 177.325V197.397C63.7163 197.882 63.6643 198.316 63.5603 198.697C63.4563 199.078 63.2483 199.356 62.9363 199.529C62.6243 199.737 62.1389 199.841 61.4803 199.841ZM51.4443 195.525C52.8309 195.525 54.0963 195.161 55.2403 194.433C56.4189 193.705 57.3376 192.734 57.9963 191.521C58.6896 190.273 59.0363 188.852 59.0363 187.257C59.0363 185.628 58.6723 184.206 57.9443 182.993C57.2509 181.745 56.3149 180.774 55.1363 180.081C53.9923 179.353 52.7269 178.989 51.3403 178.989C49.7109 178.989 48.2896 179.37 47.0763 180.133C45.8976 180.861 44.9616 181.849 44.2683 183.097C43.5749 184.345 43.2283 185.766 43.2283 187.361C43.2283 188.921 43.5749 190.325 44.2683 191.573C44.9616 192.786 45.9149 193.757 47.1283 194.485C48.3763 195.178 49.8149 195.525 51.4443 195.525ZM72.2036 199.893C71.545 199.893 71.0423 199.789 70.6956 199.581C70.3836 199.408 70.1756 199.148 70.0716 198.801C70.0023 198.42 69.9676 197.986 69.9676 197.501V177.013C69.9676 176.493 70.0196 176.06 70.1236 175.713C70.2276 175.366 70.4356 175.124 70.7476 174.985C71.0596 174.812 71.5623 174.725 72.2556 174.725C72.8796 174.725 73.3476 174.812 73.6596 174.985C74.0063 175.124 74.2316 175.349 74.3356 175.661C74.4743 175.938 74.5436 176.268 74.5436 176.649L74.3356 178.209C74.5783 177.758 74.8556 177.308 75.1676 176.857C75.5143 176.406 75.9303 176.008 76.4156 175.661C76.9356 175.28 77.5423 174.968 78.2356 174.725C78.9636 174.482 79.8476 174.361 80.8876 174.361C81.4076 174.361 81.893 174.413 82.3436 174.517C82.829 174.586 83.2796 174.708 83.6956 174.881C84.1463 175.054 84.5276 175.262 84.8396 175.505C85.1516 175.713 85.3943 175.956 85.5676 176.233C85.7756 176.476 85.8796 176.77 85.8796 177.117C85.8796 177.88 85.637 178.538 85.1516 179.093C84.6663 179.613 84.1636 179.873 83.6436 179.873C83.193 179.873 82.8636 179.821 82.6556 179.717C82.4476 179.578 82.2396 179.44 82.0316 179.301C81.8583 179.162 81.5983 179.041 81.2516 178.937C80.905 178.798 80.3503 178.729 79.5876 178.729C79.0676 178.729 78.513 178.833 77.9236 179.041C77.369 179.249 76.8316 179.561 76.3116 179.977C75.7916 180.358 75.3583 180.861 75.0116 181.485C74.6996 182.109 74.5436 182.837 74.5436 183.669V197.605C74.5436 198.09 74.4916 198.506 74.3876 198.853C74.2836 199.2 74.0583 199.46 73.7116 199.633C73.3996 199.806 72.897 199.893 72.2036 199.893ZM98.9446 199.893C97.8353 199.893 96.83 199.789 95.9286 199.581C95.062 199.408 94.2993 199.113 93.6406 198.697C92.982 198.281 92.4273 197.744 91.9766 197.085C91.5606 196.426 91.2486 195.629 91.0406 194.693C90.8673 193.757 90.7806 192.665 90.7806 191.417V165.417C90.7806 164.897 90.8153 164.464 90.8846 164.117C90.9886 163.77 91.214 163.51 91.5606 163.337C91.9073 163.129 92.3926 163.025 93.0166 163.025C93.71 163.025 94.2126 163.112 94.5246 163.285C94.8713 163.458 95.0966 163.718 95.2006 164.065C95.3046 164.412 95.3566 164.828 95.3566 165.313V191.365C95.3566 192.058 95.426 192.665 95.5646 193.185C95.7033 193.67 95.9113 194.086 96.1886 194.433C96.5006 194.78 96.882 195.022 97.3326 195.161C97.7833 195.3 98.3206 195.369 98.9446 195.369C99.3606 195.369 99.7073 195.421 99.9846 195.525C100.297 195.629 100.539 195.837 100.713 196.149C100.886 196.461 100.973 196.946 100.973 197.605C100.973 198.298 100.886 198.818 100.713 199.165C100.539 199.477 100.297 199.668 99.9846 199.737C99.7073 199.841 99.3606 199.893 98.9446 199.893ZM108.64 209.981C107.808 209.634 107.322 209.236 107.184 208.785C107.045 208.334 107.166 207.71 107.548 206.913L121.328 175.973C121.709 175.176 122.108 174.69 122.524 174.517C122.974 174.309 123.598 174.378 124.396 174.725C125.228 175.106 125.696 175.522 125.8 175.973C125.938 176.424 125.834 177.03 125.488 177.793L111.604 208.889C111.257 209.686 110.876 210.154 110.46 210.293C110.044 210.432 109.437 210.328 108.64 209.981ZM113.788 196.565L101.88 178.209C101.429 177.516 101.256 176.944 101.36 176.493C101.464 176.008 101.862 175.54 102.556 175.089C103.318 174.604 103.925 174.43 104.376 174.569C104.861 174.673 105.346 175.072 105.832 175.765L115.92 191.625L113.788 196.565ZM146.198 199.893C145.505 199.893 144.985 199.789 144.638 199.581C144.291 199.408 144.049 199.148 143.91 198.801C143.806 198.454 143.754 198.038 143.754 197.553V165.989C143.754 165.469 143.806 165.036 143.91 164.689C144.014 164.342 144.222 164.082 144.534 163.909C144.881 163.701 145.401 163.597 146.094 163.597C146.787 163.597 147.29 163.701 147.602 163.909C147.949 164.082 148.174 164.342 148.278 164.689C148.382 165.036 148.434 165.452 148.434 165.937V195.525H165.854C166.305 195.525 166.686 195.577 166.998 195.681C167.31 195.785 167.553 195.993 167.726 196.305C167.934 196.617 168.038 197.085 168.038 197.709C168.038 198.298 167.951 198.766 167.778 199.113C167.605 199.425 167.362 199.633 167.05 199.737C166.738 199.841 166.357 199.893 165.906 199.893H146.198ZM184.502 200.153C182.422 200.153 180.567 199.806 178.938 199.113C177.309 198.42 175.922 197.484 174.778 196.305C173.669 195.092 172.819 193.705 172.23 192.145C171.641 190.585 171.346 188.904 171.346 187.101C171.346 184.709 171.901 182.577 173.01 180.705C174.119 178.833 175.645 177.36 177.586 176.285C179.562 175.176 181.815 174.621 184.346 174.621C186.079 174.621 187.622 174.898 188.974 175.453C190.361 175.973 191.539 176.684 192.51 177.585C193.481 178.486 194.226 179.492 194.746 180.601C195.266 181.71 195.526 182.82 195.526 183.929C195.526 185.697 195.11 186.945 194.278 187.673C193.446 188.366 192.423 188.713 191.21 188.713H176.182C176.147 190.238 176.546 191.556 177.378 192.665C178.245 193.74 179.319 194.572 180.602 195.161C181.919 195.75 183.237 196.045 184.554 196.045C185.525 196.045 186.357 195.993 187.05 195.889C187.743 195.785 188.35 195.646 188.87 195.473C189.39 195.3 189.841 195.126 190.222 194.953C190.603 194.78 190.933 194.606 191.21 194.433C191.522 194.26 191.817 194.138 192.094 194.069C192.406 194 192.701 194.034 192.978 194.173C193.29 194.277 193.533 194.502 193.706 194.849C193.914 195.126 194.053 195.386 194.122 195.629C194.191 195.872 194.226 196.132 194.226 196.409C194.226 196.894 193.81 197.432 192.978 198.021C192.146 198.61 190.985 199.113 189.494 199.529C188.038 199.945 186.374 200.153 184.502 200.153ZM176.182 185.645H189.234C189.893 185.645 190.378 185.558 190.69 185.385C191.037 185.212 191.21 184.744 191.21 183.981C191.21 183.01 190.915 182.144 190.326 181.381C189.737 180.584 188.922 179.942 187.882 179.457C186.877 178.972 185.715 178.729 184.398 178.729C182.873 178.729 181.469 179.041 180.186 179.665C178.938 180.254 177.95 181.069 177.222 182.109C176.494 183.149 176.147 184.328 176.182 185.645ZM222.152 199.841C221.389 199.841 220.835 199.685 220.488 199.373C220.176 199.061 219.985 198.576 219.916 197.917L220.124 195.317C219.777 195.872 219.24 196.513 218.512 197.241C217.784 197.934 216.831 198.558 215.652 199.113C214.473 199.633 213.035 199.893 211.336 199.893C209.672 199.893 208.112 199.564 206.656 198.905C205.235 198.246 203.969 197.328 202.86 196.149C201.785 194.97 200.936 193.618 200.312 192.093C199.723 190.568 199.428 188.938 199.428 187.205C199.428 185.506 199.723 183.912 200.312 182.421C200.936 180.896 201.803 179.561 202.912 178.417C204.021 177.273 205.287 176.372 206.708 175.713C208.164 175.054 209.707 174.725 211.336 174.725C212.861 174.725 214.161 174.933 215.236 175.349C216.311 175.73 217.229 176.25 217.992 176.909C218.789 177.533 219.483 178.244 220.072 179.041L219.968 176.857C219.933 176.094 220.089 175.557 220.436 175.245C220.817 174.898 221.407 174.725 222.204 174.725C222.863 174.725 223.331 174.829 223.608 175.037C223.92 175.245 224.128 175.54 224.232 175.921C224.336 176.302 224.388 176.77 224.388 177.325V197.397C224.388 197.882 224.336 198.316 224.232 198.697C224.128 199.078 223.92 199.356 223.608 199.529C223.296 199.737 222.811 199.841 222.152 199.841ZM212.116 195.525C213.503 195.525 214.768 195.161 215.912 194.433C217.091 193.705 218.009 192.734 218.668 191.521C219.361 190.273 219.708 188.852 219.708 187.257C219.708 185.628 219.344 184.206 218.616 182.993C217.923 181.745 216.987 180.774 215.808 180.081C214.664 179.353 213.399 178.989 212.012 178.989C210.383 178.989 208.961 179.37 207.748 180.133C206.569 180.861 205.633 181.849 204.94 183.097C204.247 184.345 203.9 185.766 203.9 187.361C203.9 188.921 204.247 190.325 204.94 191.573C205.633 192.786 206.587 193.757 207.8 194.485C209.048 195.178 210.487 195.525 212.116 195.525ZM232.876 199.893C232.217 199.893 231.714 199.789 231.368 199.581C231.056 199.408 230.848 199.148 230.744 198.801C230.674 198.42 230.64 197.986 230.64 197.501V177.013C230.64 176.493 230.692 176.06 230.796 175.713C230.9 175.366 231.108 175.124 231.42 174.985C231.732 174.812 232.234 174.725 232.928 174.725C233.552 174.725 234.02 174.812 234.332 174.985C234.678 175.124 234.904 175.349 235.008 175.661C235.146 175.938 235.216 176.268 235.216 176.649L235.008 178.209C235.25 177.758 235.528 177.308 235.84 176.857C236.186 176.406 236.602 176.008 237.088 175.661C237.608 175.28 238.214 174.968 238.908 174.725C239.636 174.482 240.52 174.361 241.56 174.361C242.08 174.361 242.565 174.413 243.016 174.517C243.501 174.586 243.952 174.708 244.368 174.881C244.818 175.054 245.2 175.262 245.512 175.505C245.824 175.713 246.066 175.956 246.24 176.233C246.448 176.476 246.552 176.77 246.552 177.117C246.552 177.88 246.309 178.538 245.824 179.093C245.338 179.613 244.836 179.873 244.316 179.873C243.865 179.873 243.536 179.821 243.328 179.717C243.12 179.578 242.912 179.44 242.704 179.301C242.53 179.162 242.27 179.041 241.924 178.937C241.577 178.798 241.022 178.729 240.26 178.729C239.74 178.729 239.185 178.833 238.596 179.041C238.041 179.249 237.504 179.561 236.984 179.977C236.464 180.358 236.03 180.861 235.684 181.485C235.372 182.109 235.216 182.837 235.216 183.669V197.605C235.216 198.09 235.164 198.506 235.06 198.853C234.956 199.2 234.73 199.46 234.384 199.633C234.072 199.806 233.569 199.893 232.876 199.893ZM254.001 199.841C253.342 199.841 252.839 199.737 252.493 199.529C252.181 199.356 251.973 199.096 251.869 198.749C251.799 198.402 251.765 197.986 251.765 197.501V176.857C251.765 176.406 251.817 176.025 251.921 175.713C252.025 175.401 252.233 175.158 252.545 174.985C252.891 174.812 253.394 174.725 254.053 174.725C254.573 174.725 254.971 174.794 255.249 174.933C255.561 175.037 255.769 175.193 255.873 175.401C256.011 175.609 256.098 175.834 256.133 176.077C256.167 176.32 256.185 176.545 256.185 176.753L256.081 179.145C256.427 178.556 256.861 178.001 257.381 177.481C257.901 176.926 258.507 176.441 259.201 176.025C259.894 175.574 260.639 175.228 261.437 174.985C262.269 174.742 263.153 174.621 264.089 174.621C265.614 174.621 267.018 174.898 268.301 175.453C269.583 175.973 270.675 176.753 271.577 177.793C272.513 178.798 273.223 180.012 273.709 181.433C274.229 182.854 274.489 184.466 274.489 186.269V197.553C274.489 198.038 274.437 198.454 274.333 198.801C274.263 199.148 274.055 199.408 273.709 199.581C273.397 199.754 272.911 199.841 272.253 199.841C271.559 199.841 271.039 199.737 270.693 199.529C270.381 199.356 270.173 199.096 270.069 198.749C269.965 198.402 269.913 197.986 269.913 197.501V186.217C269.913 184.761 269.67 183.496 269.185 182.421C268.699 181.346 267.971 180.514 267.001 179.925C266.03 179.301 264.799 178.989 263.309 178.989C261.887 178.989 260.639 179.301 259.565 179.925C258.525 180.514 257.71 181.346 257.121 182.421C256.566 183.496 256.289 184.761 256.289 186.217V197.553C256.289 198.038 256.237 198.454 256.133 198.801C256.029 199.148 255.803 199.408 255.457 199.581C255.145 199.754 254.659 199.841 254.001 199.841ZM283.206 199.893C282.547 199.893 282.045 199.789 281.698 199.581C281.386 199.408 281.178 199.148 281.074 198.801C280.97 198.454 280.918 198.038 280.918 197.553V177.013C280.918 176.528 280.97 176.112 281.074 175.765C281.178 175.418 281.386 175.158 281.698 174.985C282.045 174.812 282.565 174.725 283.258 174.725C283.917 174.725 284.402 174.829 284.714 175.037C285.026 175.21 285.234 175.47 285.338 175.817C285.442 176.164 285.494 176.597 285.494 177.117V197.605C285.494 198.09 285.442 198.506 285.338 198.853C285.234 199.2 285.009 199.46 284.662 199.633C284.35 199.806 283.865 199.893 283.206 199.893ZM283.206 168.485C282.443 168.485 281.871 168.381 281.49 168.173C281.109 167.93 280.849 167.601 280.71 167.185C280.606 166.769 280.554 166.284 280.554 165.729C280.554 165.174 280.623 164.706 280.762 164.325C280.901 163.909 281.161 163.614 281.542 163.441C281.923 163.233 282.495 163.129 283.258 163.129C283.986 163.129 284.541 163.233 284.922 163.441C285.303 163.649 285.546 163.961 285.65 164.377C285.789 164.793 285.858 165.278 285.858 165.833C285.858 166.388 285.789 166.873 285.65 167.289C285.546 167.67 285.303 167.965 284.922 168.173C284.541 168.381 283.969 168.485 283.206 168.485ZM294.575 199.841C293.916 199.841 293.413 199.737 293.067 199.529C292.755 199.356 292.547 199.096 292.443 198.749C292.373 198.402 292.339 197.986 292.339 197.501V176.857C292.339 176.406 292.391 176.025 292.495 175.713C292.599 175.401 292.807 175.158 293.119 174.985C293.465 174.812 293.968 174.725 294.627 174.725C295.147 174.725 295.545 174.794 295.823 174.933C296.135 175.037 296.343 175.193 296.447 175.401C296.585 175.609 296.672 175.834 296.707 176.077C296.741 176.32 296.759 176.545 296.759 176.753L296.655 179.145C297.001 178.556 297.435 178.001 297.955 177.481C298.475 176.926 299.081 176.441 299.775 176.025C300.468 175.574 301.213 175.228 302.011 174.985C302.843 174.742 303.727 174.621 304.663 174.621C306.188 174.621 307.592 174.898 308.875 175.453C310.157 175.973 311.249 176.753 312.151 177.793C313.087 178.798 313.797 180.012 314.283 181.433C314.803 182.854 315.063 184.466 315.063 186.269V197.553C315.063 198.038 315.011 198.454 314.907 198.801C314.837 199.148 314.629 199.408 314.283 199.581C313.971 199.754 313.485 199.841 312.827 199.841C312.133 199.841 311.613 199.737 311.267 199.529C310.955 199.356 310.747 199.096 310.643 198.749C310.539 198.402 310.487 197.986 310.487 197.501V186.217C310.487 184.761 310.244 183.496 309.759 182.421C309.273 181.346 308.545 180.514 307.575 179.925C306.604 179.301 305.373 178.989 303.883 178.989C302.461 178.989 301.213 179.301 300.139 179.925C299.099 180.514 298.284 181.346 297.695 182.421C297.14 183.496 296.863 184.761 296.863 186.217V197.553C296.863 198.038 296.811 198.454 296.707 198.801C296.603 199.148 296.377 199.408 296.031 199.581C295.719 199.754 295.233 199.841 294.575 199.841ZM331.84 210.085C330.627 210.085 329.465 209.946 328.356 209.669C327.247 209.392 326.276 209.028 325.444 208.577C324.612 208.126 323.953 207.641 323.468 207.121C322.983 206.601 322.74 206.116 322.74 205.665C322.74 205.318 322.792 205.024 322.896 204.781C323 204.573 323.156 204.348 323.364 204.105C323.711 203.758 323.988 203.516 324.196 203.377C324.404 203.238 324.681 203.169 325.028 203.169C325.375 203.169 325.721 203.308 326.068 203.585C326.415 203.897 326.831 204.226 327.316 204.573C327.836 204.954 328.46 205.284 329.188 205.561C329.951 205.873 330.887 206.029 331.996 206.029C333.14 206.029 334.163 205.856 335.064 205.509C335.965 205.162 336.745 204.642 337.404 203.949C338.063 203.256 338.565 202.406 338.912 201.401C339.259 200.43 339.432 199.321 339.432 198.073L339.328 176.441C339.363 175.782 339.553 175.314 339.9 175.037C340.281 174.76 340.871 174.621 341.668 174.621C342.327 174.621 342.795 174.725 343.072 174.933C343.384 175.106 343.575 175.366 343.644 175.713C343.748 176.025 343.8 176.424 343.8 176.909V198.437C343.8 200.274 343.505 201.904 342.916 203.325C342.327 204.781 341.495 206.012 340.42 207.017C339.345 208.022 338.08 208.785 336.624 209.305C335.168 209.825 333.573 210.085 331.84 210.085ZM331.684 199.321C330.02 199.321 328.477 199.026 327.056 198.437C325.669 197.813 324.439 196.946 323.364 195.837C322.324 194.728 321.509 193.428 320.92 191.937C320.365 190.446 320.088 188.817 320.088 187.049C320.088 185.281 320.365 183.652 320.92 182.161C321.509 180.67 322.324 179.37 323.364 178.261C324.404 177.152 325.617 176.302 327.004 175.713C328.425 175.089 329.968 174.777 331.632 174.777C333.157 174.777 334.544 175.072 335.792 175.661C337.04 176.25 338.097 177.1 338.964 178.209C339.865 179.284 340.541 180.566 340.992 182.057C341.443 183.548 341.668 185.212 341.668 187.049C341.668 189.545 341.269 191.712 340.472 193.549C339.675 195.386 338.531 196.808 337.04 197.813C335.549 198.818 333.764 199.321 331.684 199.321ZM331.944 195.057C333.331 195.057 334.579 194.71 335.688 194.017C336.797 193.324 337.681 192.37 338.34 191.157C338.999 189.944 339.328 188.54 339.328 186.945C339.328 185.385 338.999 184.016 338.34 182.837C337.681 181.624 336.78 180.688 335.636 180.029C334.527 179.37 333.261 179.041 331.84 179.041C330.419 179.041 329.153 179.37 328.044 180.029C326.935 180.688 326.068 181.624 325.444 182.837C324.855 184.016 324.56 185.402 324.56 186.997C324.56 188.592 324.872 189.996 325.496 191.209C326.12 192.388 326.987 193.324 328.096 194.017C329.205 194.71 330.488 195.057 331.944 195.057ZM390.098 199.893C389.439 199.893 388.936 199.789 388.59 199.581C388.278 199.408 388.07 199.148 387.966 198.801C387.862 198.42 387.81 197.986 387.81 197.501V165.937C387.81 165.452 387.862 165.036 387.966 164.689C388.07 164.342 388.295 164.082 388.642 163.909C388.988 163.701 389.491 163.597 390.15 163.597C390.843 163.597 391.346 163.701 391.658 163.909C392.004 164.082 392.23 164.342 392.334 164.689C392.438 165.036 392.49 165.469 392.49 165.989V197.553C392.49 198.038 392.42 198.454 392.282 198.801C392.178 199.148 391.952 199.408 391.606 199.581C391.294 199.789 390.791 199.893 390.098 199.893ZM366.698 199.893C366.004 199.893 365.484 199.789 365.138 199.581C364.826 199.408 364.618 199.148 364.514 198.801C364.41 198.42 364.358 197.986 364.358 197.501V165.937C364.358 165.452 364.41 165.036 364.514 164.689C364.652 164.342 364.878 164.082 365.19 163.909C365.536 163.701 366.056 163.597 366.75 163.597C367.408 163.597 367.894 163.701 368.206 163.909C368.552 164.082 368.778 164.342 368.882 164.689C368.986 165.036 369.038 165.469 369.038 165.989V197.553C369.038 198.038 368.986 198.454 368.882 198.801C368.778 199.148 368.552 199.408 368.206 199.581C367.859 199.789 367.356 199.893 366.698 199.893ZM366.906 183.461V179.093H388.642L388.59 183.461H366.906ZM409.521 199.945C407.995 199.945 406.574 199.668 405.257 199.113C403.974 198.558 402.847 197.778 401.877 196.773C400.906 195.768 400.143 194.554 399.589 193.133C399.069 191.712 398.809 190.1 398.809 188.297V177.013C398.809 176.528 398.861 176.112 398.965 175.765C399.069 175.418 399.277 175.158 399.589 174.985C399.935 174.777 400.438 174.673 401.097 174.673C401.755 174.673 402.241 174.777 402.553 174.985C402.899 175.193 403.125 175.47 403.229 175.817C403.333 176.164 403.385 176.58 403.385 177.065V188.349C403.385 189.77 403.627 191.036 404.113 192.145C404.598 193.22 405.326 194.052 406.297 194.641C407.302 195.23 408.515 195.525 409.937 195.525C411.393 195.525 412.641 195.23 413.681 194.641C414.755 194.052 415.57 193.22 416.125 192.145C416.714 191.036 417.009 189.77 417.009 188.349V177.013C417.009 176.528 417.061 176.112 417.165 175.765C417.269 175.418 417.477 175.158 417.789 174.985C418.135 174.777 418.638 174.673 419.297 174.673C419.955 174.673 420.441 174.777 420.753 174.985C421.099 175.193 421.307 175.47 421.377 175.817C421.481 176.164 421.533 176.58 421.533 177.065V197.709C421.533 198.125 421.481 198.506 421.377 198.853C421.307 199.165 421.099 199.408 420.753 199.581C420.441 199.754 419.955 199.841 419.297 199.841C418.811 199.841 418.413 199.789 418.101 199.685C417.823 199.581 417.615 199.442 417.477 199.269C417.338 199.096 417.234 198.905 417.165 198.697C417.13 198.454 417.113 198.212 417.113 197.969L417.321 195.733C416.974 196.149 416.558 196.6 416.073 197.085C415.587 197.57 415.015 198.038 414.357 198.489C413.733 198.905 413.022 199.252 412.225 199.529C411.427 199.806 410.526 199.945 409.521 199.945ZM440.615 199.893C438.916 199.893 437.374 199.581 435.987 198.957C434.6 198.333 433.422 197.449 432.451 196.305C431.48 195.161 430.718 193.826 430.163 192.301C429.643 190.776 429.4 189.094 429.435 187.257C429.435 185.454 429.695 183.79 430.215 182.265C430.735 180.705 431.48 179.37 432.451 178.261C433.456 177.117 434.635 176.233 435.987 175.609C437.374 174.985 438.916 174.673 440.615 174.673C442.21 174.673 443.7 174.985 445.087 175.609C446.508 176.233 447.739 177.117 448.779 178.261C449.854 179.37 450.686 180.688 451.275 182.213C451.899 183.738 452.211 185.402 452.211 187.205C452.211 189.042 451.899 190.741 451.275 192.301C450.686 193.826 449.854 195.161 448.779 196.305C447.739 197.449 446.508 198.333 445.087 198.957C443.7 199.581 442.21 199.893 440.615 199.893ZM439.939 195.473C441.395 195.473 442.712 195.126 443.891 194.433C445.07 193.74 445.988 192.786 446.647 191.573C447.34 190.325 447.687 188.904 447.687 187.309C447.687 185.68 447.34 184.258 446.647 183.045C445.988 181.797 445.07 180.826 443.891 180.133C442.747 179.44 441.43 179.093 439.939 179.093C438.483 179.093 437.166 179.44 435.987 180.133C434.843 180.826 433.924 181.797 433.231 183.045C432.572 184.258 432.243 185.68 432.243 187.309C432.243 188.904 432.572 190.325 433.231 191.573C433.924 192.786 434.843 193.74 435.987 194.433C437.166 195.126 438.483 195.473 439.939 195.473ZM429.799 199.945C429.14 199.945 428.638 199.841 428.291 199.633C427.979 199.46 427.771 199.2 427.667 198.853C427.563 198.472 427.511 198.056 427.511 197.605V165.521C427.511 165.001 427.563 164.568 427.667 164.221C427.771 163.874 427.979 163.614 428.291 163.441C428.638 163.233 429.14 163.129 429.799 163.129C430.458 163.129 430.943 163.233 431.255 163.441C431.567 163.649 431.775 163.926 431.879 164.273C431.983 164.62 432.035 165.036 432.035 165.521V198.073C431.966 198.732 431.758 199.2 431.411 199.477C431.099 199.789 430.562 199.945 429.799 199.945Z" fill="white"/>
</svg>
