<svg width="445" height="132" viewBox="0 0 445 132" fill="none" xmlns="http://www.w3.org/2000/svg">
<g filter="url(#filter0_dii_92_292)">
<path d="M396.417 25.7573C410.449 25.7573 421.878 30.2473 430.659 39.2495L431.075 39.6821L431.076 39.6831C439.851 48.9708 444.222 61.068 444.222 75.9272C444.222 90.7244 439.994 102.543 431.495 111.329L431.496 111.33C423.049 120.119 411.561 124.493 397.093 124.493C382.635 124.493 371.123 120.379 362.619 112.104L362.184 111.679C353.123 102.713 348.612 90.6637 348.612 75.5894C348.612 60.2293 352.98 48.0682 361.766 39.1685C370.602 30.2185 382.168 25.7573 396.417 25.7573ZM395.826 60.5464C395.247 60.5464 394.75 60.7251 394.317 61.0923C394.81 66.5602 395.059 70.9723 395.059 74.3228V88.8696C395.339 89.0628 395.794 89.1968 396.502 89.1968C397.276 89.1967 397.742 88.9396 398.022 88.4985C398.334 88.0082 398.536 87.0648 398.536 85.5571V73.478C398.536 68.0609 398.308 64.5486 397.876 62.8745L397.875 62.8706C397.661 62.0139 397.365 61.4288 397.023 61.064C396.696 60.7149 396.308 60.5465 395.826 60.5464Z" fill="#6CC070" stroke="#282828"/>
<path d="M296.401 47.96C295.882 47.96 295.459 47.9879 295.126 48.0391C294.977 48.062 294.852 48.0894 294.749 48.1182C294.776 48.4187 294.79 48.7941 294.79 49.2344V64.3496C294.851 64.3623 294.923 64.3756 295.009 64.3867C295.302 64.425 295.707 64.4463 296.232 64.4463C297.146 64.4463 297.801 64.0981 298.266 63.4014C298.744 62.6843 299.027 61.4301 299.027 59.54V53.1201C299.027 51.106 298.77 49.7886 298.338 49.0684L298.328 49.0527L298.319 49.0352C298.133 48.6629 297.888 48.4034 297.589 48.2324C297.286 48.0596 296.898 47.96 296.401 47.96ZM296.901 116.031L296.724 116.181C294.176 118.323 290.614 120.067 286.07 121.43L286.064 121.432C281.513 122.74 276.764 123.394 271.82 123.395C264.776 123.395 258.962 122.031 254.412 119.267L254.411 119.266C249.197 116.079 246.569 111.442 246.569 105.408V25.1592C246.569 23.117 247.94 21.1849 250.403 19.3516L250.407 19.3486C252.941 17.5061 256.399 15.853 260.762 14.3799C270.115 11.2053 280.788 9.62305 292.77 9.62305C309.352 9.62313 322.627 13.7561 332.539 22.0732C342.462 30.3993 347.416 41.6114 347.416 55.6543C347.416 69.6233 342.953 80.5564 333.982 88.3838L333.98 88.3857C325.359 95.8083 313.43 99.4883 298.26 99.4883C294.787 99.4883 291.065 99.0897 287.096 98.2959L287.088 98.2939C283.512 97.5165 280.965 96.8252 279.485 96.2168C279.278 96.5293 279.162 96.936 279.162 97.4678C279.162 97.9878 279.421 98.5079 280.081 99.0293C280.75 99.5579 281.791 100.053 283.243 100.495C286.142 101.379 290.53 102.01 296.433 102.375L296.901 102.404V116.031Z" fill="#FF2E95" stroke="#282828"/>
<path d="M194.865 25.7573C208.897 25.7573 220.327 30.2473 229.107 39.2495L229.523 39.6821L229.524 39.6831C238.299 48.9708 242.67 61.068 242.67 75.9272C242.67 90.7244 238.442 102.543 229.943 111.329L229.944 111.33C221.497 120.119 210.009 124.493 195.541 124.493C181.083 124.493 169.572 120.379 161.067 112.104L160.632 111.679C151.571 102.713 147.061 90.6637 147.061 75.5894C147.061 60.2293 151.428 48.0682 160.214 39.1685C169.05 30.2185 180.617 25.7573 194.865 25.7573ZM194.274 60.5464C193.695 60.5464 193.198 60.7251 192.766 61.0923C193.258 66.5602 193.507 70.9723 193.507 74.3228V88.8696C193.787 89.0628 194.242 89.1968 194.95 89.1968C195.725 89.1967 196.19 88.9396 196.471 88.4985C196.783 88.0082 196.984 87.0648 196.984 85.5571V73.478C196.984 68.0609 196.756 64.5486 196.324 62.8745L196.323 62.8706C196.109 62.0139 195.814 61.4288 195.472 61.064C195.144 60.7149 194.756 60.5465 194.274 60.5464Z" fill="#FFD66B" stroke="#282828"/>
<path d="M117.573 0.5C125.285 0.5 131.114 2.14168 134.96 5.51855L135.321 5.83398C138.984 9.13245 140.796 13.6808 140.796 19.415V78.7998C140.796 86.8871 142.694 92.0427 146.29 94.5303L146.643 94.7627L146.826 94.877L146.869 95.0889C146.936 95.426 146.962 96.0087 146.962 96.792V98.3125C146.962 106.445 144.885 112.7 140.653 116.991L140.654 116.992C136.48 121.282 130.563 123.395 122.979 123.395C115.393 123.395 109.317 121.281 104.811 117.006V117.005C99.4407 111.923 96.7994 104.279 96.7993 94.1738V6.125L97.0396 5.97949C103.039 2.32304 109.888 0.5 117.573 0.5Z" fill="#FF8A5B" stroke="#282828"/>
<path d="M50.8325 115.181L50.6606 115.331C48.0092 117.636 44.4848 119.551 40.1079 121.085L40.1069 121.084C35.7582 122.629 30.4619 123.394 24.231 123.394C18.0174 123.394 12.6295 121.997 8.08936 119.182L7.62451 118.89C2.89168 115.834 0.500488 111.523 0.500488 106V20.1753C0.500488 18.6365 1.4558 17.368 3.12061 16.3491C4.78128 15.3328 7.22929 14.5089 10.4253 13.8569C16.8257 12.5514 26.3913 11.9038 39.0981 11.9038H88.979L89.1216 12.1636C90.7805 15.1953 92.0068 18.5926 92.8042 22.3511L93.0835 23.7163C93.6919 26.8638 93.9985 29.7389 93.9985 32.3394C93.9985 38.8495 92.5711 43.8256 89.6294 47.1772C86.6767 50.5413 82.274 52.1841 76.519 52.1841H47.2915C46.2799 52.1841 45.6144 52.3984 45.2065 52.7417C44.8152 53.0713 44.5815 53.5879 44.5815 54.3872V54.978C44.5815 55.0472 44.5848 55.1054 44.5894 55.1538H81.8735L82.019 55.4009C84.9397 60.3831 86.396 65.9907 86.396 72.2104C86.396 79.9387 84.6622 86.0331 81.1323 90.4312L80.9829 90.6187H39.5708C39.2962 90.9438 39.1753 91.2804 39.1753 91.6392C39.1753 91.9449 39.2808 92.156 39.4927 92.3237C39.7286 92.5105 40.1321 92.6684 40.7651 92.7476H40.7642C42.1479 92.9135 43.7037 92.9976 45.4331 92.9976C47.1842 92.9976 48.8236 93.0259 50.3511 93.0825L50.8325 93.1001V115.181Z" fill="#2A8DFF" stroke="#282828"/>
</g>
<defs>
<filter id="filter0_dii_92_292" x="-1.99951" y="-4" width="450.721" height="134.992" filterUnits="userSpaceOnUse" color-interpolation-filters="sRGB">
<feFlood flood-opacity="0" result="BackgroundImageFix"/>
<feColorMatrix in="SourceAlpha" type="matrix" values="0 0 0 0 0 0 0 0 0 0 0 0 0 0 0 0 0 0 127 0" result="hardAlpha"/>
<feOffset dy="6"/>
<feComposite in2="hardAlpha" operator="out"/>
<feColorMatrix type="matrix" values="0 0 0 0 0 0 0 0 0 0 0 0 0 0 0 0 0 0 0.25 0"/>
<feBlend mode="normal" in2="BackgroundImageFix" result="effect1_dropShadow_92_292"/>
<feBlend mode="normal" in="SourceGraphic" in2="effect1_dropShadow_92_292" result="shape"/>
<feColorMatrix in="SourceAlpha" type="matrix" values="0 0 0 0 0 0 0 0 0 0 0 0 0 0 0 0 0 0 127 0" result="hardAlpha"/>
<feOffset dx="-2" dy="-9"/>
<feGaussianBlur stdDeviation="2"/>
<feComposite in2="hardAlpha" operator="arithmetic" k2="-1" k3="1"/>
<feColorMatrix type="matrix" values="0 0 0 0 0 0 0 0 0 0 0 0 0 0 0 0 0 0 0.25 0"/>
<feBlend mode="normal" in2="shape" result="effect2_innerShadow_92_292"/>
<feColorMatrix in="SourceAlpha" type="matrix" values="0 0 0 0 0 0 0 0 0 0 0 0 0 0 0 0 0 0 127 0" result="hardAlpha"/>
<feOffset dx="6" dy="9"/>
<feGaussianBlur stdDeviation="2"/>
<feComposite in2="hardAlpha" operator="arithmetic" k2="-1" k3="1"/>
<feColorMatrix type="matrix" values="0 0 0 0 1 0 0 0 0 1 0 0 0 0 1 0 0 0 0.38 0"/>
<feBlend mode="normal" in2="effect2_innerShadow_92_292" result="effect3_innerShadow_92_292"/>
</filter>
</defs>
</svg>
